<svg width="1384" height="913" viewBox="0 0 1384 913" fill="none" xmlns="http://www.w3.org/2000/svg">
<path d="M4.5 597C4.5 588.44 11.4396 581.5 20 581.5H207C215.56 581.5 222.5 588.44 222.5 597V647C222.5 655.56 215.56 662.5 207 662.5H20C11.4396 662.5 4.5 655.56 4.5 647V597Z" fill="#EFD372"/>
<path d="M4.5 597C4.5 588.44 11.4396 581.5 20 581.5H207C215.56 581.5 222.5 588.44 222.5 597V647C222.5 655.56 215.56 662.5 207 662.5H20C11.4396 662.5 4.5 655.56 4.5 647V597Z" stroke="#EFD372"/>
<path d="M195 639C205.493 639 214 631.389 214 622C214 612.611 205.493 605 195 605C184.507 605 176 612.611 176 622C176 631.389 184.507 639 195 639Z" fill="#335B6B"/>
<path d="M201.038 621.5H187M195.077 616L202 621.5L195.077 627V616Z" stroke="white" stroke-linecap="round" stroke-linejoin="round"/>
<path d="M47.1494 626.543V628H39.9966V626.543H47.1494ZM40.3584 614.492V628H38.5679V614.492H40.3584ZM46.2031 620.3V621.756H39.9966V620.3H46.2031ZM47.0566 614.492V615.958H39.9966V614.492H47.0566ZM50.6266 617.962L52.8253 621.617L55.0519 617.962H57.0651L53.7809 622.916L57.1671 628H55.1818L52.8624 624.233L50.5431 628H48.5485L51.9254 622.916L48.6505 617.962H50.6266ZM60.969 619.892V631.859H59.2434V617.962H60.8206L60.969 619.892ZM67.7322 622.897V623.092C67.7322 623.822 67.6456 624.499 67.4724 625.124C67.2993 625.743 67.0457 626.281 66.7117 626.738C66.3839 627.196 65.9788 627.552 65.4964 627.805C65.0139 628.059 64.4604 628.186 63.8357 628.186C63.1987 628.186 62.6359 628.08 62.1472 627.87C61.6586 627.66 61.2443 627.354 60.9041 626.952C60.5639 626.55 60.2918 626.067 60.0877 625.504C59.8898 624.942 59.7537 624.308 59.6795 623.603V622.563C59.7537 621.821 59.8929 621.156 60.097 620.569C60.3011 619.981 60.5701 619.48 60.9041 619.066C61.2443 618.645 61.6555 618.327 62.138 618.11C62.6204 617.888 63.177 617.776 63.8079 617.776C64.4387 617.776 64.9985 617.9 65.4871 618.147C65.9757 618.389 66.387 618.735 66.721 619.187C67.055 619.638 67.3054 620.179 67.4724 620.81C67.6456 621.435 67.7322 622.131 67.7322 622.897ZM66.0066 623.092V622.897C66.0066 622.396 65.954 621.926 65.8489 621.487C65.7438 621.042 65.5799 620.652 65.3572 620.318C65.1407 619.978 64.8624 619.712 64.5222 619.521C64.1821 619.323 63.777 619.224 63.3069 619.224C62.874 619.224 62.4967 619.298 62.1751 619.446C61.8596 619.595 61.5906 619.796 61.3679 620.049C61.1453 620.297 60.9628 620.581 60.8206 620.903C60.6845 621.218 60.5825 621.546 60.5144 621.886V624.289C60.6381 624.722 60.8113 625.13 61.034 625.514C61.2566 625.891 61.5535 626.197 61.9246 626.432C62.2957 626.661 62.7626 626.775 63.3255 626.775C63.7893 626.775 64.1883 626.68 64.5222 626.488C64.8624 626.29 65.1407 626.021 65.3572 625.681C65.5799 625.34 65.7438 624.951 65.8489 624.512C65.954 624.066 66.0066 623.593 66.0066 623.092ZM72.1464 613.75V628H70.4208V613.75H72.1464ZM74.8072 623.092V622.879C74.8072 622.155 74.9123 621.484 75.1226 620.866C75.3329 620.241 75.636 619.7 76.0318 619.242C76.4276 618.778 76.907 618.42 77.4698 618.166C78.0326 617.906 78.6635 617.776 79.3624 617.776C80.0674 617.776 80.7014 617.906 81.2642 618.166C81.8332 618.42 82.3156 618.778 82.7115 619.242C83.1135 619.7 83.4197 620.241 83.6299 620.866C83.8402 621.484 83.9454 622.155 83.9454 622.879V623.092C83.9454 623.816 83.8402 624.487 83.6299 625.105C83.4197 625.724 83.1135 626.265 82.7115 626.729C82.3156 627.187 81.8363 627.545 81.2735 627.805C80.7169 628.059 80.086 628.186 79.3809 628.186C78.6758 628.186 78.0419 628.059 77.4791 627.805C76.9162 627.545 76.4338 627.187 76.0318 626.729C75.636 626.265 75.3329 625.724 75.1226 625.105C74.9123 624.487 74.8072 623.816 74.8072 623.092ZM76.5235 622.879V623.092C76.5235 623.593 76.5823 624.066 76.6998 624.512C76.8173 624.951 76.9935 625.34 77.2286 625.681C77.4698 626.021 77.7698 626.29 78.1285 626.488C78.4872 626.68 78.9047 626.775 79.3809 626.775C79.851 626.775 80.2623 626.68 80.6148 626.488C80.9735 626.29 81.2704 626.021 81.5054 625.681C81.7405 625.34 81.9167 624.951 82.0342 624.512C82.1579 624.066 82.2198 623.593 82.2198 623.092V622.879C82.2198 622.384 82.1579 621.917 82.0342 621.478C81.9167 621.033 81.7374 620.64 81.4962 620.3C81.2611 619.953 80.9642 619.681 80.6055 619.483C80.253 619.285 79.8386 619.187 79.3624 619.187C78.8923 619.187 78.4779 619.285 78.1192 619.483C77.7667 619.681 77.4698 619.953 77.2286 620.3C76.9935 620.64 76.8173 621.033 76.6998 621.478C76.5823 621.917 76.5235 622.384 76.5235 622.879ZM88.174 619.539V628H86.4577V617.962H88.1276L88.174 619.539ZM91.3098 617.906L91.3005 619.502C91.1582 619.471 91.0222 619.452 90.8923 619.446C90.7686 619.434 90.6263 619.428 90.4655 619.428C90.0697 619.428 89.7202 619.49 89.4172 619.613C89.1141 619.737 88.8575 619.91 88.6472 620.133C88.4369 620.355 88.2699 620.621 88.1462 620.931C88.0287 621.234 87.9514 621.568 87.9143 621.933L87.4318 622.211C87.4318 621.605 87.4906 621.036 87.6081 620.504C87.7318 619.972 87.9204 619.502 88.174 619.094C88.4276 618.679 88.7492 618.358 89.1389 618.129C89.5347 617.894 90.0048 617.776 90.549 617.776C90.6727 617.776 90.815 617.792 90.9758 617.823C91.1366 617.847 91.2479 617.875 91.3098 617.906ZM97.2362 628.186C96.5373 628.186 95.9033 628.068 95.3343 627.833C94.7715 627.592 94.286 627.255 93.8778 626.822C93.4758 626.389 93.1665 625.875 92.95 625.282C92.7336 624.688 92.6253 624.039 92.6253 623.333V622.944C92.6253 622.127 92.7459 621.401 92.9871 620.764C93.2284 620.12 93.5562 619.576 93.9705 619.131C94.3849 618.686 94.855 618.348 95.3807 618.12C95.9064 617.891 96.4507 617.776 97.0135 617.776C97.731 617.776 98.3495 617.9 98.869 618.147C99.3947 618.395 99.8246 618.741 100.159 619.187C100.493 619.626 100.74 620.145 100.901 620.745C101.062 621.339 101.142 621.988 101.142 622.693V623.463H93.6458V622.062H99.4256V621.933C99.4009 621.487 99.3081 621.054 99.1473 620.634C98.9927 620.213 98.7453 619.867 98.4051 619.595C98.0649 619.323 97.6011 619.187 97.0135 619.187C96.6239 619.187 96.2651 619.27 95.9373 619.437C95.6095 619.598 95.3281 619.839 95.0931 620.161C94.8581 620.482 94.6756 620.875 94.5457 621.339C94.4159 621.803 94.3509 622.338 94.3509 622.944V623.333C94.3509 623.81 94.4159 624.258 94.5457 624.679C94.6818 625.093 94.8766 625.458 95.1302 625.773C95.39 626.089 95.7023 626.336 96.0672 626.516C96.4383 626.695 96.8589 626.785 97.3289 626.785C97.9351 626.785 98.4484 626.661 98.869 626.414C99.2896 626.166 99.6576 625.835 99.973 625.421L101.012 626.247C100.796 626.574 100.52 626.887 100.186 627.184C99.8524 627.48 99.4411 627.722 98.9525 627.907C98.4701 628.093 97.898 628.186 97.2362 628.186ZM119.229 614.492V628H117.429L110.629 617.582V628H108.838V614.492H110.629L117.457 624.938V614.492H119.229ZM122.048 623.092V622.879C122.048 622.155 122.153 621.484 122.363 620.866C122.573 620.241 122.876 619.7 123.272 619.242C123.668 618.778 124.147 618.42 124.71 618.166C125.273 617.906 125.904 617.776 126.603 617.776C127.308 617.776 127.942 617.906 128.505 618.166C129.074 618.42 129.556 618.778 129.952 619.242C130.354 619.7 130.66 620.241 130.87 620.866C131.081 621.484 131.186 622.155 131.186 622.879V623.092C131.186 623.816 131.081 624.487 130.87 625.105C130.66 625.724 130.354 626.265 129.952 626.729C129.556 627.187 129.077 627.545 128.514 627.805C127.957 628.059 127.326 628.186 126.621 628.186C125.916 628.186 125.282 628.059 124.719 627.805C124.157 627.545 123.674 627.187 123.272 626.729C122.876 626.265 122.573 625.724 122.363 625.105C122.153 624.487 122.048 623.816 122.048 623.092ZM123.764 622.879V623.092C123.764 623.593 123.823 624.066 123.94 624.512C124.058 624.951 124.234 625.34 124.469 625.681C124.71 626.021 125.01 626.29 125.369 626.488C125.728 626.68 126.145 626.775 126.621 626.775C127.091 626.775 127.503 626.68 127.855 626.488C128.214 626.29 128.511 626.021 128.746 625.681C128.981 625.34 129.157 624.951 129.275 624.512C129.398 624.066 129.46 623.593 129.46 623.092V622.879C129.46 622.384 129.398 621.917 129.275 621.478C129.157 621.033 128.978 620.64 128.737 620.3C128.502 619.953 128.205 619.681 127.846 619.483C127.493 619.285 127.079 619.187 126.603 619.187C126.133 619.187 125.718 619.285 125.36 619.483C125.007 619.681 124.71 619.953 124.469 620.3C124.234 620.64 124.058 621.033 123.94 621.478C123.823 621.917 123.764 622.384 123.764 622.879ZM136.24 626.219L138.819 617.962H139.951L139.728 619.604L137.103 628H135.999L136.24 626.219ZM134.505 617.962L136.704 626.312L136.862 628H135.702L132.789 617.962H134.505ZM142.419 626.247L144.516 617.962H146.223L143.309 628H142.159L142.419 626.247ZM140.202 617.962L142.725 626.08L143.013 628H141.918L139.218 619.585L138.996 617.962H140.202Z" fill="#274C5B"/>
<path d="M20.4404 357.104L30.3525 315.234H35.8896L37.1543 322.207L26.5928 365H20.6455L20.4404 357.104ZM15.3477 315.234L23.5508 357.104L22.8672 365H16.2363L5.19629 315.234H15.3477ZM45.8701 356.934L53.9707 315.234H64.1221L53.1162 365H46.4854L45.8701 356.934ZM39 315.234L48.9805 357.275L48.707 365H42.7598L32.1299 322.173L33.4971 315.234H39ZM85.3659 365.684C82.4948 365.684 79.9199 365.228 77.6413 364.316C75.3626 363.382 73.4258 362.095 71.8307 360.454C70.2584 358.813 69.0508 356.911 68.2077 354.746C67.3646 352.559 66.943 350.234 66.943 347.773V346.406C66.943 343.604 67.3418 341.04 68.1393 338.716C68.9368 336.392 70.0761 334.375 71.5573 332.666C73.0612 330.957 74.8841 329.647 77.026 328.735C79.1679 327.801 81.5833 327.334 84.2721 327.334C86.8926 327.334 89.2168 327.767 91.2448 328.633C93.2728 329.499 94.9704 330.729 96.3375 332.324C97.7275 333.919 98.7757 335.833 99.4821 338.066C100.188 340.277 100.542 342.738 100.542 345.449V349.551H71.1471V342.988H90.8688V342.236C90.8688 340.869 90.6181 339.65 90.1168 338.579C89.6383 337.485 88.9092 336.619 87.9293 335.981C86.9495 335.343 85.6963 335.024 84.1696 335.024C82.8707 335.024 81.7542 335.309 80.82 335.879C79.8857 336.449 79.1224 337.246 78.5299 338.271C77.9603 339.297 77.5273 340.505 77.2311 341.895C76.9577 343.262 76.8209 344.766 76.8209 346.406V347.773C76.8209 349.255 77.026 350.622 77.4362 351.875C77.8691 353.128 78.473 354.211 79.2477 355.122C80.0452 356.034 81.0023 356.74 82.1188 357.241C83.2581 357.743 84.5455 357.993 85.9811 357.993C87.7584 357.993 89.4105 357.651 90.9371 356.968C92.4866 356.261 93.8196 355.202 94.9362 353.789L99.7213 358.984C98.9466 360.101 97.887 361.172 96.5426 362.197C95.221 363.223 93.626 364.066 91.7575 364.727C89.889 365.365 87.7584 365.684 85.3659 365.684ZM116.898 312.5V365H107.02V312.5H116.898ZM140.671 357.993C141.879 357.993 142.949 357.765 143.884 357.31C144.818 356.831 145.547 356.17 146.071 355.327C146.618 354.461 146.903 353.447 146.926 352.285H156.188C156.166 354.883 155.471 357.196 154.103 359.224C152.736 361.229 150.902 362.812 148.601 363.975C146.299 365.114 143.724 365.684 140.876 365.684C138.005 365.684 135.498 365.205 133.356 364.248C131.237 363.291 129.471 361.969 128.059 360.283C126.646 358.574 125.586 356.592 124.88 354.336C124.173 352.057 123.82 349.619 123.82 347.021V346.03C123.82 343.41 124.173 340.972 124.88 338.716C125.586 336.437 126.646 334.455 128.059 332.769C129.471 331.06 131.237 329.727 133.356 328.77C135.476 327.812 137.959 327.334 140.808 327.334C143.838 327.334 146.493 327.915 148.771 329.077C151.073 330.239 152.873 331.903 154.172 334.067C155.493 336.209 156.166 338.75 156.188 341.689H146.926C146.903 340.459 146.641 339.342 146.14 338.34C145.661 337.337 144.955 336.54 144.02 335.947C143.109 335.332 141.981 335.024 140.637 335.024C139.201 335.024 138.028 335.332 137.116 335.947C136.205 336.54 135.498 337.36 134.997 338.408C134.496 339.434 134.143 340.607 133.937 341.929C133.755 343.228 133.664 344.595 133.664 346.03V347.021C133.664 348.457 133.755 349.836 133.937 351.157C134.12 352.479 134.462 353.652 134.963 354.678C135.487 355.703 136.205 356.512 137.116 357.104C138.028 357.697 139.212 357.993 140.671 357.993ZM160.684 346.885V346.167C160.684 343.455 161.072 340.96 161.846 338.682C162.621 336.38 163.749 334.386 165.23 332.7C166.711 331.014 168.534 329.704 170.699 328.77C172.864 327.812 175.347 327.334 178.15 327.334C180.953 327.334 183.448 327.812 185.635 328.77C187.823 329.704 189.657 331.014 191.138 332.7C192.642 334.386 193.781 336.38 194.556 338.682C195.331 340.96 195.718 343.455 195.718 346.167V346.885C195.718 349.574 195.331 352.069 194.556 354.37C193.781 356.649 192.642 358.643 191.138 360.352C189.657 362.038 187.834 363.348 185.669 364.282C183.505 365.216 181.021 365.684 178.218 365.684C175.416 365.684 172.92 365.216 170.733 364.282C168.568 363.348 166.734 362.038 165.23 360.352C163.749 358.643 162.621 356.649 161.846 354.37C161.072 352.069 160.684 349.574 160.684 346.885ZM170.528 346.167V346.885C170.528 348.434 170.665 349.881 170.938 351.226C171.211 352.57 171.644 353.755 172.237 354.78C172.852 355.783 173.65 356.569 174.629 357.139C175.609 357.708 176.806 357.993 178.218 357.993C179.586 357.993 180.759 357.708 181.739 357.139C182.719 356.569 183.505 355.783 184.097 354.78C184.69 353.755 185.123 352.57 185.396 351.226C185.692 349.881 185.84 348.434 185.84 346.885V346.167C185.84 344.663 185.692 343.25 185.396 341.929C185.123 340.584 184.678 339.399 184.063 338.374C183.471 337.326 182.684 336.506 181.705 335.913C180.725 335.321 179.54 335.024 178.15 335.024C176.76 335.024 175.575 335.321 174.595 335.913C173.638 336.506 172.852 337.326 172.237 338.374C171.644 339.399 171.211 340.584 170.938 341.929C170.665 343.25 170.528 344.663 170.528 346.167ZM211.972 335.674V365H202.094V328.018H211.357L211.972 335.674ZM210.605 345.21H207.87C207.87 342.635 208.178 340.265 208.793 338.101C209.431 335.913 210.354 334.022 211.562 332.427C212.792 330.809 214.307 329.556 216.108 328.667C217.908 327.778 219.993 327.334 222.363 327.334C224.003 327.334 225.507 327.585 226.874 328.086C228.241 328.564 229.415 329.328 230.395 330.376C231.397 331.401 232.172 332.746 232.719 334.409C233.266 336.05 233.539 338.021 233.539 340.322V365H223.696V341.416C223.696 339.73 223.468 338.431 223.012 337.52C222.556 336.608 221.907 335.97 221.064 335.605C220.243 335.241 219.252 335.059 218.09 335.059C216.814 335.059 215.697 335.321 214.74 335.845C213.806 336.369 213.031 337.098 212.416 338.032C211.801 338.944 211.345 340.015 211.049 341.245C210.753 342.476 210.605 343.797 210.605 345.21ZM232.616 344.082L229.096 344.526C229.096 342.111 229.392 339.867 229.985 337.793C230.6 335.719 231.5 333.896 232.685 332.324C233.892 330.752 235.385 329.533 237.162 328.667C238.94 327.778 240.99 327.334 243.315 327.334C245.092 327.334 246.71 327.596 248.168 328.12C249.627 328.621 250.868 329.43 251.894 330.547C252.942 331.641 253.739 333.076 254.286 334.854C254.856 336.631 255.141 338.807 255.141 341.382V365H245.263V341.382C245.263 339.673 245.035 338.374 244.579 337.485C244.146 336.574 243.508 335.947 242.665 335.605C241.845 335.241 240.865 335.059 239.726 335.059C238.541 335.059 237.504 335.298 236.615 335.776C235.727 336.232 234.986 336.87 234.394 337.69C233.801 338.511 233.357 339.468 233.061 340.562C232.765 341.632 232.616 342.806 232.616 344.082ZM280.144 365.684C277.273 365.684 274.698 365.228 272.42 364.316C270.141 363.382 268.204 362.095 266.609 360.454C265.037 358.813 263.829 356.911 262.986 354.746C262.143 352.559 261.722 350.234 261.722 347.773V346.406C261.722 343.604 262.12 341.04 262.918 338.716C263.715 336.392 264.855 334.375 266.336 332.666C267.84 330.957 269.663 329.647 271.805 328.735C273.946 327.801 276.362 327.334 279.051 327.334C281.671 327.334 283.995 327.767 286.023 328.633C288.051 329.499 289.749 330.729 291.116 332.324C292.506 333.919 293.554 335.833 294.261 338.066C294.967 340.277 295.32 342.738 295.32 345.449V349.551H265.926V342.988H285.647V342.236C285.647 340.869 285.397 339.65 284.895 338.579C284.417 337.485 283.688 336.619 282.708 335.981C281.728 335.343 280.475 335.024 278.948 335.024C277.649 335.024 276.533 335.309 275.598 335.879C274.664 336.449 273.901 337.246 273.308 338.271C272.739 339.297 272.306 340.505 272.01 341.895C271.736 343.262 271.599 344.766 271.599 346.406V347.773C271.599 349.255 271.805 350.622 272.215 351.875C272.648 353.128 273.251 354.211 274.026 355.122C274.824 356.034 275.781 356.74 276.897 357.241C278.037 357.743 279.324 357.993 280.76 357.993C282.537 357.993 284.189 357.651 285.716 356.968C287.265 356.261 288.598 355.202 289.715 353.789L294.5 358.984C293.725 360.101 292.666 361.172 291.321 362.197C290 363.223 288.404 364.066 286.536 364.727C284.667 365.365 282.537 365.684 280.144 365.684ZM337.193 328.018V334.99H315.659V328.018H337.193ZM320.991 318.892H330.835V353.857C330.835 354.928 330.972 355.749 331.245 356.318C331.541 356.888 331.974 357.287 332.544 357.515C333.114 357.72 333.832 357.822 334.697 357.822C335.313 357.822 335.859 357.799 336.338 357.754C336.839 357.686 337.261 357.617 337.603 357.549L337.637 364.795C336.794 365.068 335.882 365.285 334.902 365.444C333.923 365.604 332.84 365.684 331.655 365.684C329.491 365.684 327.599 365.33 325.982 364.624C324.387 363.895 323.156 362.733 322.29 361.138C321.424 359.543 320.991 357.446 320.991 354.849V318.892ZM340.697 346.885V346.167C340.697 343.455 341.084 340.96 341.859 338.682C342.634 336.38 343.762 334.386 345.243 332.7C346.724 331.014 348.547 329.704 350.712 328.77C352.876 327.812 355.36 327.334 358.163 327.334C360.966 327.334 363.461 327.812 365.648 328.77C367.836 329.704 369.67 331.014 371.151 332.7C372.655 334.386 373.794 336.38 374.569 338.682C375.344 340.96 375.731 343.455 375.731 346.167V346.885C375.731 349.574 375.344 352.069 374.569 354.37C373.794 356.649 372.655 358.643 371.151 360.352C369.67 362.038 367.847 363.348 365.682 364.282C363.518 365.216 361.034 365.684 358.231 365.684C355.428 365.684 352.933 365.216 350.746 364.282C348.581 363.348 346.747 362.038 345.243 360.352C343.762 358.643 342.634 356.649 341.859 354.37C341.084 352.069 340.697 349.574 340.697 346.885ZM350.541 346.167V346.885C350.541 348.434 350.677 349.881 350.951 351.226C351.224 352.57 351.657 353.755 352.25 354.78C352.865 355.783 353.663 356.569 354.642 357.139C355.622 357.708 356.818 357.993 358.231 357.993C359.598 357.993 360.772 357.708 361.752 357.139C362.732 356.569 363.518 355.783 364.11 354.78C364.703 353.755 365.135 352.57 365.409 351.226C365.705 349.881 365.853 348.434 365.853 346.885V346.167C365.853 344.663 365.705 343.25 365.409 341.929C365.135 340.584 364.691 339.399 364.076 338.374C363.483 337.326 362.697 336.506 361.718 335.913C360.738 335.321 359.553 335.024 358.163 335.024C356.773 335.024 355.588 335.321 354.608 335.913C353.651 336.506 352.865 337.326 352.25 338.374C351.657 339.399 351.224 340.584 350.951 341.929C350.677 343.25 350.541 344.663 350.541 346.167ZM418.048 328.018V334.99H396.515V328.018H418.048ZM401.847 318.892H411.69V353.857C411.69 354.928 411.827 355.749 412.101 356.318C412.397 356.888 412.83 357.287 413.399 357.515C413.969 357.72 414.687 357.822 415.553 357.822C416.168 357.822 416.715 357.799 417.193 357.754C417.695 357.686 418.116 357.617 418.458 357.549L418.492 364.795C417.649 365.068 416.738 365.285 415.758 365.444C414.778 365.604 413.696 365.684 412.511 365.684C410.346 365.684 408.455 365.33 406.837 364.624C405.242 363.895 404.011 362.733 403.146 361.138C402.28 359.543 401.847 357.446 401.847 354.849V318.892ZM433.618 312.5V365H423.774V312.5H433.618ZM432.216 345.21H429.516C429.539 342.635 429.881 340.265 430.542 338.101C431.202 335.913 432.148 334.022 433.379 332.427C434.609 330.809 436.079 329.556 437.788 328.667C439.52 327.778 441.434 327.334 443.53 327.334C445.353 327.334 447.005 327.596 448.486 328.12C449.99 328.621 451.277 329.442 452.348 330.581C453.442 331.698 454.285 333.167 454.878 334.99C455.47 336.813 455.766 339.023 455.766 341.621V365H445.854V341.553C445.854 339.912 445.615 338.625 445.136 337.69C444.681 336.733 444.008 336.061 443.12 335.674C442.254 335.264 441.183 335.059 439.907 335.059C438.494 335.059 437.286 335.321 436.284 335.845C435.304 336.369 434.518 337.098 433.925 338.032C433.333 338.944 432.9 340.015 432.627 341.245C432.353 342.476 432.216 343.797 432.216 345.21ZM480.633 365.684C477.762 365.684 475.187 365.228 472.909 364.316C470.63 363.382 468.693 362.095 467.098 360.454C465.526 358.813 464.318 356.911 463.475 354.746C462.632 352.559 462.21 350.234 462.21 347.773V346.406C462.21 343.604 462.609 341.04 463.407 338.716C464.204 336.392 465.343 334.375 466.825 332.666C468.328 330.957 470.151 329.647 472.293 328.735C474.435 327.801 476.851 327.334 479.539 327.334C482.16 327.334 484.484 327.767 486.512 328.633C488.54 329.499 490.238 330.729 491.605 332.324C492.995 333.919 494.043 335.833 494.749 338.066C495.456 340.277 495.809 342.738 495.809 345.449V349.551H466.414V342.988H486.136V342.236C486.136 340.869 485.885 339.65 485.384 338.579C484.906 337.485 484.176 336.619 483.197 335.981C482.217 335.343 480.964 335.024 479.437 335.024C478.138 335.024 477.021 335.309 476.087 335.879C475.153 336.449 474.39 337.246 473.797 338.271C473.228 339.297 472.795 340.505 472.498 341.895C472.225 343.262 472.088 344.766 472.088 346.406V347.773C472.088 349.255 472.293 350.622 472.703 351.875C473.136 353.128 473.74 354.211 474.515 355.122C475.312 356.034 476.27 356.74 477.386 357.241C478.525 357.743 479.813 357.993 481.248 357.993C483.026 357.993 484.678 357.651 486.204 356.968C487.754 356.261 489.087 355.202 490.203 353.789L494.989 358.984C494.214 360.101 493.154 361.172 491.81 362.197C490.488 363.223 488.893 364.066 487.025 364.727C485.156 365.365 483.026 365.684 480.633 365.684Z" fill="#274C5B"/>
<path d="M27.7891 524.66V508.186C27.7891 507.001 27.5954 505.987 27.208 505.144C26.8206 504.278 26.2168 503.605 25.3965 503.127C24.599 502.648 23.5622 502.409 22.2861 502.409C21.1924 502.409 20.2467 502.603 19.4492 502.99C18.6517 503.355 18.0365 503.89 17.6035 504.597C17.1706 505.28 16.9541 506.089 16.9541 507.023H7.11035C7.11035 505.451 7.47493 503.959 8.2041 502.546C8.93327 501.133 9.99284 499.891 11.3828 498.82C12.7728 497.727 14.4248 496.872 16.3389 496.257C18.2757 495.642 20.4404 495.334 22.833 495.334C25.7041 495.334 28.2562 495.812 30.4893 496.77C32.7223 497.727 34.4769 499.162 35.7529 501.076C37.0518 502.99 37.7012 505.383 37.7012 508.254V524.079C37.7012 526.107 37.8265 527.771 38.0771 529.069C38.3278 530.345 38.6924 531.462 39.1709 532.419V533H29.2246C28.7461 531.997 28.3815 530.744 28.1309 529.24C27.903 527.714 27.7891 526.187 27.7891 524.66ZM29.0879 510.476L29.1562 516.047H23.6533C22.3545 516.047 21.2266 516.195 20.2695 516.491C19.3125 516.787 18.5264 517.209 17.9111 517.756C17.2959 518.28 16.8402 518.895 16.5439 519.602C16.2705 520.308 16.1338 521.083 16.1338 521.926C16.1338 522.769 16.3275 523.532 16.7148 524.216C17.1022 524.877 17.6605 525.401 18.3896 525.788C19.1188 526.153 19.9733 526.335 20.9531 526.335C22.4342 526.335 23.7217 526.039 24.8154 525.446C25.9092 524.854 26.7523 524.125 27.3447 523.259C27.96 522.393 28.279 521.573 28.3018 520.798L30.8994 524.968C30.5348 525.902 30.0335 526.87 29.3955 527.873C28.7803 528.876 27.9941 529.821 27.0371 530.71C26.0801 531.576 24.9294 532.294 23.585 532.863C22.2406 533.41 20.6455 533.684 18.7998 533.684C16.4528 533.684 14.3223 533.216 12.4082 532.282C10.5169 531.325 9.01302 530.015 7.89648 528.352C6.80273 526.665 6.25586 524.751 6.25586 522.609C6.25586 520.673 6.62044 518.952 7.34961 517.448C8.07878 515.944 9.14974 514.68 10.5625 513.654C11.998 512.606 13.7868 511.82 15.9287 511.296C18.0706 510.749 20.5544 510.476 23.3799 510.476H29.0879ZM55.2877 503.913V533H45.444V496.018H54.6725L55.2877 503.913ZM53.8522 513.21H51.1862C51.1862 510.476 51.5394 508.015 52.2457 505.827C52.9521 503.617 53.9433 501.737 55.2194 500.188C56.4954 498.615 58.0107 497.419 59.7653 496.599C61.5426 495.756 63.525 495.334 65.7125 495.334C67.4443 495.334 69.028 495.585 70.4635 496.086C71.8991 496.587 73.1295 497.385 74.1549 498.479C75.2031 499.572 76.0006 501.019 76.5475 502.819C77.1172 504.619 77.402 506.818 77.402 509.416V533H67.4899V509.382C67.4899 507.741 67.262 506.465 66.8063 505.554C66.3506 504.642 65.6784 504.004 64.7897 503.64C63.9238 503.252 62.8528 503.059 61.5768 503.059C60.2552 503.059 59.1045 503.321 58.1246 503.845C57.1676 504.369 56.3701 505.098 55.7321 506.032C55.1168 506.944 54.6497 508.015 54.3307 509.245C54.0117 510.476 53.8522 511.797 53.8522 513.21ZM107.088 524.934V480.5H117V533H108.079L107.088 524.934ZM83.7093 514.953V514.235C83.7093 511.41 84.0283 508.846 84.6663 506.545C85.3043 504.221 86.2386 502.227 87.469 500.563C88.6995 498.9 90.2148 497.613 92.0149 496.701C93.8151 495.79 95.8658 495.334 98.1673 495.334C100.332 495.334 102.223 495.79 103.841 496.701C105.482 497.613 106.872 498.911 108.011 500.598C109.173 502.261 110.107 504.232 110.814 506.511C111.52 508.767 112.033 511.239 112.352 513.928V515.5C112.033 518.075 111.52 520.467 110.814 522.678C110.107 524.888 109.173 526.825 108.011 528.488C106.872 530.129 105.482 531.405 103.841 532.316C102.2 533.228 100.286 533.684 98.0989 533.684C95.7975 533.684 93.7467 533.216 91.9466 532.282C90.1692 531.348 88.6653 530.038 87.4348 528.352C86.2272 526.665 85.3043 524.683 84.6663 522.404C84.0283 520.126 83.7093 517.642 83.7093 514.953ZM93.553 514.235V514.953C93.553 516.48 93.6669 517.904 93.8948 519.226C94.1455 520.547 94.5442 521.721 95.0911 522.746C95.6608 523.749 96.3899 524.535 97.2786 525.104C98.1901 525.651 99.2952 525.925 100.594 525.925C102.28 525.925 103.67 525.549 104.764 524.797C105.858 524.022 106.689 522.963 107.259 521.618C107.852 520.274 108.193 518.724 108.284 516.97V512.492C108.216 511.057 108.011 509.769 107.669 508.63C107.35 507.468 106.872 506.477 106.234 505.656C105.618 504.836 104.844 504.198 103.909 503.742C102.998 503.286 101.916 503.059 100.662 503.059C99.3863 503.059 98.2926 503.355 97.3811 503.947C96.4697 504.517 95.7291 505.303 95.1595 506.306C94.6126 507.308 94.2024 508.493 93.929 509.86C93.6783 511.205 93.553 512.663 93.553 514.235ZM141.27 514.885V514.167C141.27 511.455 141.657 508.96 142.432 506.682C143.207 504.38 144.335 502.386 145.816 500.7C147.297 499.014 149.12 497.704 151.285 496.77C153.449 495.812 155.933 495.334 158.736 495.334C161.539 495.334 164.034 495.812 166.221 496.77C168.409 497.704 170.243 499.014 171.724 500.7C173.228 502.386 174.367 504.38 175.142 506.682C175.917 508.96 176.304 511.455 176.304 514.167V514.885C176.304 517.574 175.917 520.069 175.142 522.37C174.367 524.649 173.228 526.643 171.724 528.352C170.243 530.038 168.42 531.348 166.255 532.282C164.091 533.216 161.607 533.684 158.804 533.684C156.002 533.684 153.506 533.216 151.319 532.282C149.154 531.348 147.32 530.038 145.816 528.352C144.335 526.643 143.207 524.649 142.432 522.37C141.657 520.069 141.27 517.574 141.27 514.885ZM151.114 514.167V514.885C151.114 516.434 151.251 517.881 151.524 519.226C151.797 520.57 152.23 521.755 152.823 522.78C153.438 523.783 154.236 524.569 155.215 525.139C156.195 525.708 157.391 525.993 158.804 525.993C160.171 525.993 161.345 525.708 162.325 525.139C163.305 524.569 164.091 523.783 164.683 522.78C165.276 521.755 165.709 520.57 165.982 519.226C166.278 517.881 166.426 516.434 166.426 514.885V514.167C166.426 512.663 166.278 511.25 165.982 509.929C165.709 508.584 165.264 507.399 164.649 506.374C164.057 505.326 163.27 504.506 162.291 503.913C161.311 503.321 160.126 503.024 158.736 503.024C157.346 503.024 156.161 503.321 155.181 503.913C154.224 504.506 153.438 505.326 152.823 506.374C152.23 507.399 151.797 508.584 151.524 509.929C151.251 511.25 151.114 512.663 151.114 514.167ZM192.558 504.084V533H182.714V496.018H191.977L192.558 504.084ZM203.7 495.778L203.529 504.904C203.051 504.836 202.47 504.779 201.786 504.733C201.126 504.665 200.522 504.631 199.975 504.631C198.585 504.631 197.377 504.813 196.352 505.178C195.349 505.52 194.506 506.032 193.822 506.716C193.162 507.399 192.66 508.231 192.319 509.211C192 510.191 191.817 511.307 191.772 512.561L189.789 511.945C189.789 509.553 190.029 507.354 190.507 505.349C190.986 503.321 191.681 501.555 192.592 500.051C193.526 498.547 194.666 497.385 196.01 496.564C197.354 495.744 198.892 495.334 200.624 495.334C201.171 495.334 201.729 495.38 202.299 495.471C202.869 495.539 203.336 495.642 203.7 495.778ZM231.438 496.018H240.359V531.77C240.359 535.142 239.607 538.002 238.103 540.349C236.622 542.718 234.549 544.507 231.883 545.715C229.217 546.945 226.118 547.561 222.586 547.561C221.036 547.561 219.396 547.355 217.664 546.945C215.955 546.535 214.314 545.897 212.742 545.031C211.193 544.165 209.894 543.072 208.846 541.75L213.186 535.939C214.326 537.261 215.647 538.286 217.151 539.016C218.655 539.768 220.319 540.144 222.141 540.144C223.919 540.144 225.423 539.813 226.653 539.152C227.884 538.514 228.829 537.569 229.49 536.315C230.151 535.085 230.481 533.592 230.481 531.838V504.562L231.438 496.018ZM206.556 514.953V514.235C206.556 511.41 206.897 508.846 207.581 506.545C208.287 504.221 209.278 502.227 210.555 500.563C211.853 498.9 213.426 497.613 215.271 496.701C217.117 495.79 219.202 495.334 221.526 495.334C223.987 495.334 226.049 495.79 227.713 496.701C229.376 497.613 230.743 498.911 231.814 500.598C232.885 502.261 233.717 504.232 234.309 506.511C234.925 508.767 235.403 511.239 235.745 513.928V515.5C235.403 518.075 234.89 520.467 234.207 522.678C233.523 524.888 232.623 526.825 231.507 528.488C230.39 530.129 229 531.405 227.337 532.316C225.696 533.228 223.737 533.684 221.458 533.684C219.179 533.684 217.117 533.216 215.271 532.282C213.448 531.348 211.888 530.038 210.589 528.352C209.29 526.665 208.287 524.683 207.581 522.404C206.897 520.126 206.556 517.642 206.556 514.953ZM216.399 514.235V514.953C216.399 516.48 216.547 517.904 216.844 519.226C217.14 520.547 217.596 521.721 218.211 522.746C218.849 523.749 219.635 524.535 220.569 525.104C221.526 525.651 222.654 525.925 223.953 525.925C225.753 525.925 227.223 525.549 228.362 524.797C229.501 524.022 230.356 522.963 230.926 521.618C231.495 520.274 231.826 518.724 231.917 516.97V512.492C231.871 511.057 231.678 509.769 231.336 508.63C230.994 507.468 230.515 506.477 229.9 505.656C229.285 504.836 228.487 504.198 227.508 503.742C226.528 503.286 225.366 503.059 224.021 503.059C222.723 503.059 221.595 503.355 220.638 503.947C219.703 504.517 218.917 505.303 218.279 506.306C217.664 507.308 217.197 508.493 216.878 509.86C216.559 511.205 216.399 512.663 216.399 514.235ZM268.336 524.66V508.186C268.336 507.001 268.143 505.987 267.755 505.144C267.368 504.278 266.764 503.605 265.944 503.127C265.146 502.648 264.11 502.409 262.833 502.409C261.74 502.409 260.794 502.603 259.997 502.99C259.199 503.355 258.584 503.89 258.151 504.597C257.718 505.28 257.501 506.089 257.501 507.023H247.658C247.658 505.451 248.022 503.959 248.751 502.546C249.481 501.133 250.54 499.891 251.93 498.82C253.32 497.727 254.972 496.872 256.886 496.257C258.823 495.642 260.988 495.334 263.38 495.334C266.251 495.334 268.804 495.812 271.037 496.77C273.27 497.727 275.024 499.162 276.3 501.076C277.599 502.99 278.249 505.383 278.249 508.254V524.079C278.249 526.107 278.374 527.771 278.624 529.069C278.875 530.345 279.24 531.462 279.718 532.419V533H269.772C269.293 531.997 268.929 530.744 268.678 529.24C268.45 527.714 268.336 526.187 268.336 524.66ZM269.635 510.476L269.704 516.047H264.201C262.902 516.047 261.774 516.195 260.817 516.491C259.86 516.787 259.074 517.209 258.458 517.756C257.843 518.28 257.388 518.895 257.091 519.602C256.818 520.308 256.681 521.083 256.681 521.926C256.681 522.769 256.875 523.532 257.262 524.216C257.65 524.877 258.208 525.401 258.937 525.788C259.666 526.153 260.521 526.335 261.5 526.335C262.982 526.335 264.269 526.039 265.363 525.446C266.457 524.854 267.3 524.125 267.892 523.259C268.507 522.393 268.826 521.573 268.849 520.798L271.447 524.968C271.082 525.902 270.581 526.87 269.943 527.873C269.328 528.876 268.541 529.821 267.584 530.71C266.627 531.576 265.477 532.294 264.132 532.863C262.788 533.41 261.193 533.684 259.347 533.684C257 533.684 254.87 533.216 252.956 532.282C251.064 531.325 249.56 530.015 248.444 528.352C247.35 526.665 246.803 524.751 246.803 522.609C246.803 520.673 247.168 518.952 247.897 517.448C248.626 515.944 249.697 514.68 251.11 513.654C252.545 512.606 254.334 511.82 256.476 511.296C258.618 510.749 261.102 510.476 263.927 510.476H269.635ZM295.835 503.913V533H285.991V496.018H295.22L295.835 503.913ZM294.4 513.21H291.734C291.734 510.476 292.087 508.015 292.793 505.827C293.499 503.617 294.491 501.737 295.767 500.188C297.043 498.615 298.558 497.419 300.313 496.599C302.09 495.756 304.072 495.334 306.26 495.334C307.992 495.334 309.575 495.585 311.011 496.086C312.446 496.587 313.677 497.385 314.702 498.479C315.75 499.572 316.548 501.019 317.095 502.819C317.665 504.619 317.949 506.818 317.949 509.416V533H308.037V509.382C308.037 507.741 307.809 506.465 307.354 505.554C306.898 504.642 306.226 504.004 305.337 503.64C304.471 503.252 303.4 503.059 302.124 503.059C300.803 503.059 299.652 503.321 298.672 503.845C297.715 504.369 296.917 505.098 296.279 506.032C295.664 506.944 295.197 508.015 294.878 509.245C294.559 510.476 294.4 511.797 294.4 513.21ZM336.185 496.018V533H326.307V496.018H336.185ZM325.692 486.379C325.692 484.943 326.193 483.758 327.196 482.824C328.199 481.89 329.543 481.423 331.229 481.423C332.893 481.423 334.226 481.89 335.228 482.824C336.254 483.758 336.766 484.943 336.766 486.379C336.766 487.814 336.254 488.999 335.228 489.934C334.226 490.868 332.893 491.335 331.229 491.335C329.543 491.335 328.199 490.868 327.196 489.934C326.193 488.999 325.692 487.814 325.692 486.379ZM359.958 525.993C361.166 525.993 362.237 525.765 363.171 525.31C364.106 524.831 364.835 524.17 365.359 523.327C365.906 522.461 366.191 521.447 366.213 520.285H375.476C375.453 522.883 374.758 525.196 373.391 527.224C372.024 529.229 370.19 530.812 367.888 531.975C365.587 533.114 363.012 533.684 360.163 533.684C357.292 533.684 354.786 533.205 352.644 532.248C350.525 531.291 348.759 529.969 347.346 528.283C345.933 526.574 344.874 524.592 344.167 522.336C343.461 520.057 343.108 517.619 343.108 515.021V514.03C343.108 511.41 343.461 508.972 344.167 506.716C344.874 504.437 345.933 502.455 347.346 500.769C348.759 499.06 350.525 497.727 352.644 496.77C354.763 495.812 357.247 495.334 360.095 495.334C363.126 495.334 365.78 495.915 368.059 497.077C370.36 498.239 372.161 499.903 373.459 502.067C374.781 504.209 375.453 506.75 375.476 509.689H366.213C366.191 508.459 365.928 507.342 365.427 506.34C364.949 505.337 364.242 504.54 363.308 503.947C362.397 503.332 361.269 503.024 359.924 503.024C358.489 503.024 357.315 503.332 356.404 503.947C355.492 504.54 354.786 505.36 354.285 506.408C353.783 507.434 353.43 508.607 353.225 509.929C353.043 511.228 352.952 512.595 352.952 514.03V515.021C352.952 516.457 353.043 517.836 353.225 519.157C353.407 520.479 353.749 521.652 354.25 522.678C354.774 523.703 355.492 524.512 356.404 525.104C357.315 525.697 358.5 525.993 359.958 525.993ZM382.022 528.249C382.022 526.791 382.524 525.572 383.526 524.592C384.552 523.612 385.908 523.122 387.594 523.122C389.28 523.122 390.624 523.612 391.627 524.592C392.652 525.572 393.165 526.791 393.165 528.249C393.165 529.707 392.652 530.926 391.627 531.906C390.624 532.886 389.28 533.376 387.594 533.376C385.908 533.376 384.552 532.886 383.526 531.906C382.524 530.926 382.022 529.707 382.022 528.249Z" fill="#274C5B"/>
<path d="M18.3896 439.43L26.0801 412.018H32.335L30.3184 422.784L22.6279 449H17.3984L18.3896 439.43ZM14.4932 412.018L19.9961 439.396L20.5088 449H14.3564L4.99121 412.018H14.4932ZM39.376 438.951L44.7422 412.018H54.2783L44.9131 449H38.7949L39.376 438.951ZM33.1895 412.018L40.8457 439.225L41.9053 449H36.6416L28.9512 422.818L27.0029 412.018H33.1895ZM58.0221 430.885V430.167C58.0221 427.455 58.4095 424.96 59.1842 422.682C59.959 420.38 61.0869 418.386 62.568 416.7C64.0491 415.014 65.872 413.704 68.0368 412.77C70.2015 411.812 72.6852 411.334 75.4879 411.334C78.2907 411.334 80.7858 411.812 82.9733 412.77C85.1608 413.704 86.9951 415.014 88.4762 416.7C89.9801 418.386 91.1194 420.38 91.8942 422.682C92.6689 424.96 93.0563 427.455 93.0563 430.167V430.885C93.0563 433.574 92.6689 436.069 91.8942 438.37C91.1194 440.649 89.9801 442.643 88.4762 444.352C86.9951 446.038 85.1722 447.348 83.0075 448.282C80.8427 449.216 78.359 449.684 75.5563 449.684C72.7536 449.684 70.2584 449.216 68.0709 448.282C65.9062 447.348 64.0719 446.038 62.568 444.352C61.0869 442.643 59.959 440.649 59.1842 438.37C58.4095 436.069 58.0221 433.574 58.0221 430.885ZM67.8659 430.167V430.885C67.8659 432.434 68.0026 433.881 68.276 435.226C68.5495 436.57 68.9824 437.755 69.5748 438.78C70.1901 439.783 70.9876 440.569 71.9674 441.139C72.9472 441.708 74.1435 441.993 75.5563 441.993C76.9235 441.993 78.097 441.708 79.0768 441.139C80.0566 440.569 80.8427 439.783 81.4352 438.78C82.0276 437.755 82.4606 436.57 82.734 435.226C83.0302 433.881 83.1784 432.434 83.1784 430.885V430.167C83.1784 428.663 83.0302 427.25 82.734 425.929C82.4606 424.584 82.0163 423.399 81.401 422.374C80.8086 421.326 80.0224 420.506 79.0426 419.913C78.0628 419.321 76.8779 419.024 75.4879 419.024C74.098 419.024 72.9131 419.321 71.9332 419.913C70.9762 420.506 70.1901 421.326 69.5748 422.374C68.9824 423.399 68.5495 424.584 68.276 425.929C68.0026 427.25 67.8659 428.663 67.8659 430.167ZM109.31 420.084V449H99.4661V412.018H108.729L109.31 420.084ZM120.452 411.778L120.282 420.904C119.803 420.836 119.222 420.779 118.538 420.733C117.878 420.665 117.274 420.631 116.727 420.631C115.337 420.631 114.129 420.813 113.104 421.178C112.101 421.52 111.258 422.032 110.574 422.716C109.914 423.399 109.412 424.231 109.071 425.211C108.752 426.191 108.569 427.307 108.524 428.561L106.541 427.945C106.541 425.553 106.781 423.354 107.259 421.349C107.738 419.321 108.433 417.555 109.344 416.051C110.278 414.547 111.418 413.385 112.762 412.564C114.106 411.744 115.644 411.334 117.376 411.334C117.923 411.334 118.481 411.38 119.051 411.471C119.621 411.539 120.088 411.642 120.452 411.778ZM135.851 396.5V449H125.974V396.5H135.851ZM166.187 440.934V396.5H176.099V449H167.178L166.187 440.934ZM142.808 430.953V430.235C142.808 427.41 143.127 424.846 143.765 422.545C144.403 420.221 145.337 418.227 146.568 416.563C147.798 414.9 149.314 413.613 151.114 412.701C152.914 411.79 154.965 411.334 157.266 411.334C159.431 411.334 161.322 411.79 162.94 412.701C164.581 413.613 165.971 414.911 167.11 416.598C168.272 418.261 169.206 420.232 169.913 422.511C170.619 424.767 171.132 427.239 171.451 429.928V431.5C171.132 434.075 170.619 436.467 169.913 438.678C169.206 440.888 168.272 442.825 167.11 444.488C165.971 446.129 164.581 447.405 162.94 448.316C161.299 449.228 159.385 449.684 157.198 449.684C154.896 449.684 152.846 449.216 151.045 448.282C149.268 447.348 147.764 446.038 146.534 444.352C145.326 442.665 144.403 440.683 143.765 438.404C143.127 436.126 142.808 433.642 142.808 430.953ZM152.652 430.235V430.953C152.652 432.48 152.766 433.904 152.994 435.226C153.244 436.547 153.643 437.721 154.19 438.746C154.76 439.749 155.489 440.535 156.378 441.104C157.289 441.651 158.394 441.925 159.693 441.925C161.379 441.925 162.769 441.549 163.863 440.797C164.957 440.022 165.788 438.963 166.358 437.618C166.95 436.274 167.292 434.724 167.383 432.97V428.492C167.315 427.057 167.11 425.769 166.768 424.63C166.449 423.468 165.971 422.477 165.333 421.656C164.717 420.836 163.943 420.198 163.008 419.742C162.097 419.286 161.015 419.059 159.761 419.059C158.485 419.059 157.391 419.355 156.48 419.947C155.569 420.517 154.828 421.303 154.258 422.306C153.711 423.308 153.301 424.493 153.028 425.86C152.777 427.205 152.652 428.663 152.652 430.235ZM200.369 430.885V430.167C200.369 427.455 200.756 424.96 201.531 422.682C202.306 420.38 203.434 418.386 204.915 416.7C206.396 415.014 208.219 413.704 210.384 412.77C212.548 411.812 215.032 411.334 217.835 411.334C220.638 411.334 223.133 411.812 225.32 412.77C227.508 413.704 229.342 415.014 230.823 416.7C232.327 418.386 233.466 420.38 234.241 422.682C235.016 424.96 235.403 427.455 235.403 430.167V430.885C235.403 433.574 235.016 436.069 234.241 438.37C233.466 440.649 232.327 442.643 230.823 444.352C229.342 446.038 227.519 447.348 225.354 448.282C223.19 449.216 220.706 449.684 217.903 449.684C215.1 449.684 212.605 449.216 210.418 448.282C208.253 447.348 206.419 446.038 204.915 444.352C203.434 442.643 202.306 440.649 201.531 438.37C200.756 436.069 200.369 433.574 200.369 430.885ZM210.213 430.167V430.885C210.213 432.434 210.349 433.881 210.623 435.226C210.896 436.57 211.329 437.755 211.922 438.78C212.537 439.783 213.334 440.569 214.314 441.139C215.294 441.708 216.49 441.993 217.903 441.993C219.27 441.993 220.444 441.708 221.424 441.139C222.403 440.569 223.19 439.783 223.782 438.78C224.375 437.755 224.807 436.57 225.081 435.226C225.377 433.881 225.525 432.434 225.525 430.885V430.167C225.525 428.663 225.377 427.25 225.081 425.929C224.807 424.584 224.363 423.399 223.748 422.374C223.155 421.326 222.369 420.506 221.389 419.913C220.41 419.321 219.225 419.024 217.835 419.024C216.445 419.024 215.26 419.321 214.28 419.913C213.323 420.506 212.537 421.326 211.922 422.374C211.329 423.399 210.896 424.584 210.623 425.929C210.349 427.25 210.213 428.663 210.213 430.167ZM254.357 449H244.445V408.736C244.445 405.934 244.992 403.575 246.085 401.661C247.202 399.724 248.763 398.266 250.768 397.286C252.796 396.284 255.2 395.782 257.98 395.782C258.891 395.782 259.769 395.851 260.612 395.987C261.455 396.101 262.275 396.249 263.073 396.432L262.97 403.849C262.537 403.735 262.082 403.655 261.603 403.609C261.124 403.564 260.566 403.541 259.928 403.541C258.743 403.541 257.729 403.746 256.886 404.156C256.066 404.544 255.439 405.125 255.006 405.899C254.573 406.674 254.357 407.62 254.357 408.736V449ZM261.74 412.018V418.99H238.942V412.018H261.74ZM294.691 419.913V449H284.847V412.018H294.076L294.691 419.913ZM293.256 429.21H290.59C290.59 426.476 290.943 424.015 291.649 421.827C292.356 419.617 293.347 417.737 294.623 416.188C295.899 414.615 297.414 413.419 299.169 412.599C300.946 411.756 302.928 411.334 305.116 411.334C306.848 411.334 308.431 411.585 309.867 412.086C311.302 412.587 312.533 413.385 313.558 414.479C314.607 415.572 315.404 417.019 315.951 418.819C316.521 420.619 316.805 422.818 316.805 425.416V449H306.893V425.382C306.893 423.741 306.665 422.465 306.21 421.554C305.754 420.642 305.082 420.004 304.193 419.64C303.327 419.252 302.256 419.059 300.98 419.059C299.659 419.059 298.508 419.321 297.528 419.845C296.571 420.369 295.774 421.098 295.135 422.032C294.52 422.944 294.053 424.015 293.734 425.245C293.415 426.476 293.256 427.797 293.256 429.21ZM344.612 440.66V424.186C344.612 423.001 344.418 421.987 344.031 421.144C343.643 420.278 343.039 419.605 342.219 419.127C341.422 418.648 340.385 418.409 339.109 418.409C338.015 418.409 337.069 418.603 336.272 418.99C335.474 419.355 334.859 419.89 334.426 420.597C333.993 421.28 333.777 422.089 333.777 423.023H323.933C323.933 421.451 324.298 419.959 325.027 418.546C325.756 417.133 326.816 415.891 328.205 414.82C329.595 413.727 331.247 412.872 333.162 412.257C335.098 411.642 337.263 411.334 339.656 411.334C342.527 411.334 345.079 411.812 347.312 412.77C349.545 413.727 351.3 415.162 352.576 417.076C353.874 418.99 354.524 421.383 354.524 424.254V440.079C354.524 442.107 354.649 443.771 354.9 445.069C355.15 446.345 355.515 447.462 355.994 448.419V449H346.047C345.569 447.997 345.204 446.744 344.954 445.24C344.726 443.714 344.612 442.187 344.612 440.66ZM345.911 426.476L345.979 432.047H340.476C339.177 432.047 338.049 432.195 337.092 432.491C336.135 432.787 335.349 433.209 334.734 433.756C334.119 434.28 333.663 434.895 333.367 435.602C333.093 436.308 332.956 437.083 332.956 437.926C332.956 438.769 333.15 439.532 333.538 440.216C333.925 440.877 334.483 441.401 335.212 441.788C335.941 442.153 336.796 442.335 337.776 442.335C339.257 442.335 340.544 442.039 341.638 441.446C342.732 440.854 343.575 440.125 344.167 439.259C344.783 438.393 345.102 437.573 345.124 436.798L347.722 440.968C347.357 441.902 346.856 442.87 346.218 443.873C345.603 444.876 344.817 445.821 343.86 446.71C342.903 447.576 341.752 448.294 340.408 448.863C339.063 449.41 337.468 449.684 335.622 449.684C333.275 449.684 331.145 449.216 329.231 448.282C327.34 447.325 325.836 446.015 324.719 444.352C323.625 442.665 323.079 440.751 323.079 438.609C323.079 436.673 323.443 434.952 324.172 433.448C324.901 431.944 325.972 430.68 327.385 429.654C328.821 428.606 330.609 427.82 332.751 427.296C334.893 426.749 337.377 426.476 340.203 426.476H345.911ZM380.587 412.018V418.99H359.054V412.018H380.587ZM364.386 402.892H374.23V437.857C374.23 438.928 374.366 439.749 374.64 440.318C374.936 440.888 375.369 441.287 375.939 441.515C376.508 441.72 377.226 441.822 378.092 441.822C378.707 441.822 379.254 441.799 379.732 441.754C380.234 441.686 380.655 441.617 380.997 441.549L381.031 448.795C380.188 449.068 379.277 449.285 378.297 449.444C377.317 449.604 376.235 449.684 375.05 449.684C372.885 449.684 370.994 449.33 369.376 448.624C367.781 447.895 366.55 446.733 365.685 445.138C364.819 443.543 364.386 441.446 364.386 438.849V402.892ZM408.427 440.147V412.018H418.271V449H409.008L408.427 440.147ZM409.521 432.56L412.426 432.491C412.426 434.952 412.142 437.242 411.572 439.361C411.002 441.458 410.148 443.281 409.008 444.83C407.869 446.357 406.434 447.553 404.702 448.419C402.97 449.262 400.931 449.684 398.584 449.684C396.784 449.684 395.12 449.433 393.593 448.932C392.09 448.408 390.791 447.599 389.697 446.505C388.626 445.388 387.783 443.964 387.168 442.232C386.575 440.478 386.279 438.37 386.279 435.909V412.018H396.123V435.978C396.123 437.071 396.248 437.994 396.499 438.746C396.772 439.498 397.148 440.113 397.627 440.592C398.105 441.07 398.663 441.412 399.301 441.617C399.962 441.822 400.691 441.925 401.489 441.925C403.517 441.925 405.112 441.515 406.274 440.694C407.459 439.874 408.291 438.757 408.769 437.345C409.271 435.909 409.521 434.314 409.521 432.56ZM435.994 420.084V449H426.151V412.018H435.413L435.994 420.084ZM447.137 411.778L446.966 420.904C446.488 420.836 445.907 420.779 445.223 420.733C444.562 420.665 443.958 420.631 443.411 420.631C442.021 420.631 440.814 420.813 439.788 421.178C438.786 421.52 437.943 422.032 437.259 422.716C436.598 423.399 436.097 424.231 435.755 425.211C435.436 426.191 435.254 427.307 435.208 428.561L433.226 427.945C433.226 425.553 433.465 423.354 433.944 421.349C434.422 419.321 435.117 417.555 436.029 416.051C436.963 414.547 438.102 413.385 439.447 412.564C440.791 411.744 442.329 411.334 444.061 411.334C444.608 411.334 445.166 411.38 445.736 411.471C446.305 411.539 446.772 411.642 447.137 411.778ZM468.483 449.684C465.612 449.684 463.037 449.228 460.759 448.316C458.48 447.382 456.543 446.095 454.948 444.454C453.376 442.813 452.168 440.911 451.325 438.746C450.482 436.559 450.061 434.234 450.061 431.773V430.406C450.061 427.604 450.459 425.04 451.257 422.716C452.054 420.392 453.194 418.375 454.675 416.666C456.179 414.957 458.002 413.647 460.144 412.735C462.285 411.801 464.701 411.334 467.39 411.334C470.01 411.334 472.334 411.767 474.362 412.633C476.39 413.499 478.088 414.729 479.455 416.324C480.845 417.919 481.893 419.833 482.6 422.066C483.306 424.277 483.659 426.738 483.659 429.449V433.551H454.265V426.988H473.986V426.236C473.986 424.869 473.736 423.65 473.234 422.579C472.756 421.485 472.027 420.619 471.047 419.981C470.067 419.343 468.814 419.024 467.287 419.024C465.988 419.024 464.872 419.309 463.937 419.879C463.003 420.449 462.24 421.246 461.647 422.271C461.078 423.297 460.645 424.505 460.349 425.895C460.075 427.262 459.938 428.766 459.938 430.406V431.773C459.938 433.255 460.144 434.622 460.554 435.875C460.987 437.128 461.59 438.211 462.365 439.122C463.163 440.034 464.12 440.74 465.236 441.241C466.376 441.743 467.663 441.993 469.099 441.993C470.876 441.993 472.528 441.651 474.055 440.968C475.604 440.261 476.937 439.202 478.054 437.789L482.839 442.984C482.064 444.101 481.005 445.172 479.66 446.197C478.339 447.223 476.743 448.066 474.875 448.727C473.006 449.365 470.876 449.684 468.483 449.684Z" fill="#274C5B"/>
<path d="M31.9844 257.514L32.125 258.182C32.125 258.463 31.9785 258.797 31.6855 259.184C30.9121 260.191 29.6699 261.352 27.959 262.664C26.2598 263.965 25.0059 264.615 24.1973 264.615C23.3887 264.615 22.7559 264.381 22.2988 263.912C21.8418 263.432 21.6133 262.887 21.6133 262.277C21.6133 261.551 22.375 259.945 23.8984 257.461C26.1836 253.77 29.1016 249.457 32.6523 244.523C31.9023 245.297 29.9102 247.383 26.6758 250.781C19.5156 258.281 15.332 262.529 14.125 263.525C13.9258 263.689 13.6328 263.771 13.2461 263.771C12.8711 263.771 12.4727 263.619 12.0508 263.314C11.6289 262.998 11.418 262.646 11.418 262.26V262.172C11.4648 261.68 12.5957 259.271 14.8105 254.947C17.0254 250.623 18.8828 247.184 20.3828 244.629C18.168 247.066 15.9297 249.785 13.668 252.785C9.36719 258.48 6.2207 263.332 4.22852 267.34C4.05273 267.715 3.83594 267.902 3.57812 267.902C3.32031 267.902 2.94531 267.838 2.45312 267.709C1.42188 267.428 0.90625 266.936 0.90625 266.232C0.90625 265.811 1.76758 264.305 3.49023 261.715C5.21289 259.113 7.21094 256.277 9.48438 253.207C11.7578 250.125 14.1133 247.16 16.5508 244.312C19.9141 240.375 22.0762 238.406 23.0371 238.406C23.1895 238.406 23.3359 238.447 23.4766 238.529C23.6172 238.6 23.7051 238.635 23.7402 238.635C23.7754 238.635 23.8105 238.617 23.8457 238.582C23.998 238.395 24.2969 238.301 24.7422 238.301C25.1992 238.301 25.6387 238.389 26.0605 238.564C26.4941 238.74 26.7109 238.939 26.7109 239.162C26.7109 239.303 26.125 240.422 24.9531 242.52C21.0273 249.48 18.3906 254.262 17.043 256.863C18.332 255.305 20.1719 253.236 22.5625 250.658C24.9648 248.08 27.4844 245.508 30.1211 242.941C33.5547 239.613 35.6055 237.949 36.2734 237.949C36.543 237.949 36.8828 238.008 37.293 238.125C38.0195 238.336 38.7168 238.441 39.3848 238.441C39.5723 238.477 39.7305 238.559 39.8594 238.688C40 238.805 40.0703 238.928 40.0703 239.057C40.0703 239.186 40.0352 239.291 39.9648 239.373C36.1562 244.436 32.9453 248.9 30.332 252.768C27.7188 256.635 26.1074 259.248 25.498 260.607C26.7285 260.35 28.5625 258.879 31 256.195C31.1055 256.055 31.1816 255.961 31.2285 255.914C31.2754 255.867 31.3164 255.82 31.3516 255.773C31.5508 255.539 31.7031 255.686 31.8086 256.213C31.8555 256.518 31.8848 256.734 31.8965 256.863C31.9199 256.98 31.9375 257.109 31.9492 257.25C31.9727 257.379 31.9844 257.467 31.9844 257.514ZM46.6705 250.641C47.5612 250.641 48.0065 250.945 48.0065 251.555C48.0065 251.883 47.9303 252.123 47.778 252.275C47.6256 252.428 47.2975 252.938 46.7936 253.805C46.3014 254.66 45.7506 255.762 45.1413 257.109C44.5436 258.445 44.1569 259.588 43.9811 260.537C43.9459 260.654 43.9284 260.818 43.9284 261.029C43.9284 261.674 44.1041 261.996 44.4557 261.996C44.8073 261.996 45.2233 261.832 45.7038 261.504C46.1842 261.164 46.612 260.807 46.987 260.432C47.362 260.045 47.7252 259.652 48.0768 259.254C48.4401 258.855 48.6569 258.627 48.7272 258.568C48.7975 258.51 48.903 258.48 49.0436 258.48C49.2663 258.48 49.401 258.65 49.4479 258.99C49.4948 259.33 49.5182 259.682 49.5182 260.045C49.5182 260.408 49.483 260.66 49.4127 260.801C49.0729 261.469 48.3229 262.271 47.1627 263.209C46.0143 264.146 44.9655 264.615 44.0163 264.615C43.0788 264.615 42.3873 264.328 41.942 263.754C41.4967 263.18 41.2741 262.547 41.2741 261.855C41.2741 261.152 41.3913 260.537 41.6256 260.01C40.653 261.275 39.5338 262.348 38.2682 263.227C37.0143 264.105 35.9889 264.545 35.192 264.545C34.3952 264.545 33.7448 264.305 33.2409 263.824C32.5963 263.227 32.2741 262.4 32.2741 261.346C32.2741 260.279 32.5084 259.213 32.9772 258.146C33.4577 257.068 34.0846 256.09 34.858 255.211C35.6315 254.32 36.4811 253.512 37.4069 252.785C39.3522 251.262 41.1452 250.5 42.7858 250.5C43.4186 250.5 43.9342 250.605 44.3327 250.816C44.7311 251.027 44.983 251.291 45.0885 251.607C45.3698 251.186 45.6041 250.922 45.7916 250.816C45.9909 250.699 46.2838 250.641 46.6705 250.641ZM44.3327 252.592C42.3288 252.592 40.2545 253.705 38.11 255.932C37.3483 256.729 36.6452 257.684 36.0006 258.797C35.3678 259.91 35.0514 260.672 35.0514 261.082C35.0514 261.492 35.1686 261.697 35.403 261.697C35.7311 261.697 36.6452 261.053 38.1452 259.764C39.6452 258.463 40.6413 257.508 41.1334 256.898C41.6725 256.219 42.7389 254.783 44.3327 252.592ZM70.3567 237.65C70.5794 237.65 70.7552 237.721 70.8841 237.861C71.013 238.002 71.0774 238.148 71.0774 238.301C71.0774 238.441 70.9602 238.711 70.7259 239.109C70.5032 239.496 69.9817 240.352 69.1614 241.676C68.3411 242.988 67.7024 244.02 67.2454 244.77C64.5852 249.094 62.4993 252.75 60.9876 255.738C59.4759 258.727 58.72 260.531 58.72 261.152V261.293C58.72 261.773 58.8958 262.014 59.2473 262.014C59.5989 262.014 60.0208 261.85 60.513 261.521C61.0169 261.193 61.4563 260.842 61.8313 260.467C62.2063 260.092 62.5813 259.705 62.9563 259.307C63.343 258.896 63.5774 258.656 63.6595 258.586C63.7415 258.516 63.847 258.48 63.9759 258.48C64.1751 258.48 64.304 258.609 64.3626 258.867C64.4212 259.113 64.4505 259.465 64.4505 259.922C64.4505 260.367 64.4153 260.66 64.345 260.801C64.0052 261.457 63.2552 262.26 62.095 263.209C60.9466 264.146 59.8567 264.615 58.8255 264.615C57.0677 264.615 56.1888 263.871 56.1888 262.383C56.1888 261.457 56.5403 260.244 57.2434 258.744C56.2942 259.975 55.3274 261.023 54.343 261.891C52.5149 263.484 50.927 264.281 49.5794 264.281C48.8294 264.281 48.2727 264.018 47.9095 263.49C47.5579 262.963 47.3821 262.207 47.3821 261.223C47.3821 260.227 47.7688 259.037 48.5423 257.654C49.3157 256.271 50.2766 255.029 51.4251 253.928C52.5852 252.814 53.8684 251.889 55.2747 251.15C56.6809 250.4 57.9759 250.025 59.1595 250.025C59.5345 250.025 59.9739 250.254 60.4778 250.711C60.8177 250.172 61.4446 249.094 62.3587 247.477C65.2298 242.637 67.1282 239.684 68.054 238.617C68.5462 237.973 69.3138 237.65 70.3567 237.65ZM59.4055 252.363C57.718 252.738 56.1477 253.523 54.6946 254.719C53.2415 255.914 52.1516 257.168 51.4251 258.48C50.6985 259.781 50.3352 260.625 50.3352 261.012C50.3352 261.398 50.4173 261.592 50.5813 261.592C51.2845 261.592 53.0247 260.021 55.802 256.881C57.1848 255.334 58.386 253.828 59.4055 252.363ZM75.5683 250.852C75.5683 251.625 75.2519 252.305 74.6191 252.891C73.998 253.477 73.289 253.77 72.4921 253.77C72.2343 253.77 72.0644 253.711 71.9823 253.594C71.9003 253.465 71.8593 253.301 71.8593 253.102C71.8593 252.902 71.8827 252.709 71.9296 252.521C71.5077 252.662 71.039 252.879 70.5234 253.172C70.0077 253.465 69.3749 253.898 68.6249 254.473C67.8749 255.047 67.4999 255.475 67.4999 255.756C67.4999 255.85 67.6347 255.896 67.9042 255.896C68.1855 255.896 68.6132 255.803 69.1874 255.615C69.7616 255.416 70.1601 255.316 70.3827 255.316C70.6171 255.316 70.7695 255.328 70.8398 255.352C70.9921 255.434 71.1562 255.615 71.332 255.896C71.5077 256.166 71.5956 256.383 71.5956 256.547C71.5956 256.699 71.4433 256.904 71.1386 257.162C70.8339 257.42 70.4882 257.619 70.1015 257.76C69.7148 257.889 69.457 257.988 69.328 258.059C66.8554 259.441 65.6191 260.391 65.6191 260.906C65.6191 261.82 66.3984 262.277 67.957 262.277C68.953 262.277 69.955 261.961 70.9628 261.328C71.8183 260.789 72.5859 260.244 73.2655 259.693C73.957 259.131 74.3905 258.785 74.5663 258.656C74.7538 258.527 74.8945 258.463 74.9882 258.463C75.2929 258.463 75.4452 258.803 75.4452 259.482C75.4452 260.162 75.4042 260.613 75.3222 260.836C75.2402 261.047 75.0058 261.311 74.6191 261.627C72.1113 263.666 69.7382 264.686 67.4999 264.686C66.3046 264.686 65.3495 264.521 64.6347 264.193C63.3222 263.596 62.6659 262.682 62.6659 261.451C62.6659 259.834 63.7851 258.609 66.0234 257.777C65.578 257.578 65.2909 257.326 65.162 257.021C65.0331 256.705 64.9687 256.207 64.9687 255.527C64.9687 254.836 65.2851 254.109 65.9179 253.348C66.5624 252.574 67.3476 251.941 68.2734 251.449C70.3359 250.336 72.1757 249.779 73.7929 249.779C74.1796 249.779 74.5722 249.873 74.9706 250.061C75.3691 250.248 75.5683 250.512 75.5683 250.852ZM116.7 239.672C116.571 239.672 116.507 239.584 116.507 239.408C116.507 239.232 116.554 239.121 116.648 239.074C116.753 239.016 116.923 238.928 117.157 238.811C117.404 238.682 117.573 238.6 117.667 238.564C117.761 238.518 117.907 238.447 118.107 238.354C118.306 238.26 118.464 238.195 118.581 238.16C118.71 238.125 118.863 238.078 119.038 238.02C119.331 237.938 119.695 237.896 120.128 237.896C120.573 237.896 121.025 238.049 121.482 238.354C121.95 238.658 122.185 239.057 122.185 239.549C122.185 240.568 121.739 241.922 120.849 243.609C119.958 245.285 118.816 247.031 117.421 248.848C116.027 250.664 114.462 252.51 112.728 254.385C110.993 256.26 109.3 257.936 107.648 259.412C105.995 260.889 104.437 262.096 102.972 263.033C101.519 263.971 100.4 264.439 99.6145 264.439C97.9504 264.439 97.1184 263.684 97.1184 262.172C97.1184 260.051 98.3195 256.986 100.722 252.979C96.0461 258.51 92.132 262.078 88.9797 263.684C88.1594 264.105 87.5324 264.316 87.0988 264.316C86.6652 264.316 86.132 264.053 85.4992 263.525C84.8781 262.986 84.5676 262.459 84.5676 261.943C84.5676 259.025 86.5949 254.941 90.6496 249.691C92.1965 247.688 94.1242 245.449 96.4328 242.977C94.4172 244.723 92.882 245.596 91.8273 245.596C91.2648 245.596 90.8488 245.32 90.5793 244.77C90.3332 244.371 90.2102 243.996 90.2102 243.645C90.2102 243.281 90.4445 242.889 90.9133 242.467C91.382 242.045 91.6574 241.834 91.7395 241.834C91.8215 241.834 91.8977 241.863 91.968 241.922C92.0383 241.98 92.0734 242.033 92.0734 242.08C91.9094 242.256 91.8273 242.373 91.8273 242.432C91.8273 242.479 91.8977 242.502 92.0383 242.502C92.1789 242.502 93.3508 241.834 95.5539 240.498C97.757 239.15 98.9641 238.477 99.175 238.477C99.7844 238.477 100.37 238.646 100.933 238.986C101.495 239.314 101.777 239.596 101.777 239.83C101.777 240.053 101.659 240.352 101.425 240.727C101.191 241.102 99.7961 242.941 97.2414 246.246C94.6867 249.539 92.8293 252.035 91.6691 253.734C90.509 255.422 89.6594 256.811 89.1203 257.9C88.5813 258.979 88.3117 259.635 88.3117 259.869C88.3117 260.104 88.3469 260.221 88.4172 260.221C88.9094 260.221 90.6672 258.738 93.6906 255.773C96.7258 252.797 99.6145 249.861 102.357 246.967C105.099 244.061 106.587 242.449 106.821 242.133C107.068 241.816 107.331 241.594 107.613 241.465C107.894 241.324 108.316 241.254 108.878 241.254C110.448 241.254 111.234 241.553 111.234 242.15C111.234 242.396 110.888 242.918 110.196 243.715C109.517 244.512 109.036 245.092 108.755 245.455C107.29 247.318 105.655 249.943 103.851 253.33C102.058 256.717 101.161 258.885 101.161 259.834C101.161 260.092 101.243 260.221 101.407 260.221C101.583 260.221 102.087 259.893 102.919 259.236C103.763 258.568 104.87 257.578 106.241 256.266C107.613 254.941 109.171 253.307 110.917 251.361C112.663 249.416 114.327 247.26 115.909 244.893C117.503 242.514 118.3 241.02 118.3 240.41C118.3 239.801 118.066 239.496 117.597 239.496L116.7 239.672ZM127.185 244.699C127.185 245.367 126.875 246.041 126.254 246.721C125.633 247.389 124.982 247.723 124.303 247.723C123.635 247.723 123.301 247.371 123.301 246.668C123.301 245.965 123.594 245.297 124.18 244.664C124.777 244.02 125.433 243.697 126.148 243.697C126.465 243.697 126.717 243.785 126.904 243.961C127.092 244.137 127.185 244.383 127.185 244.699ZM124.338 260.045C124.338 260.396 124.303 260.648 124.232 260.801C123.658 261.973 122.744 262.922 121.49 263.648C120.236 264.363 119.146 264.721 118.221 264.721C117.295 264.721 116.498 264.41 115.83 263.789C115.162 263.168 114.828 262.535 114.828 261.891C114.828 261.246 115.15 260.309 115.795 259.078C116.439 257.848 117.084 256.711 117.728 255.668C118.373 254.625 118.695 254.062 118.695 253.98C118.695 253.887 118.572 253.711 118.326 253.453C118.092 253.195 117.974 253.008 117.974 252.891C117.974 252.762 118.215 252.439 118.695 251.924C119.187 251.396 119.779 250.881 120.471 250.377C121.174 249.861 121.707 249.604 122.07 249.604C122.445 249.604 122.779 249.768 123.072 250.096C123.365 250.424 123.512 250.723 123.512 250.992C123.512 251.262 122.117 253.799 119.328 258.604C119.293 258.674 119.193 258.832 119.029 259.078C118.877 259.312 118.754 259.512 118.66 259.676C118.578 259.828 118.478 260.016 118.361 260.238C118.127 260.707 118.01 261.1 118.01 261.416C118.01 261.814 118.279 262.014 118.818 262.014C119.357 262.014 119.914 261.832 120.488 261.469C121.074 261.094 121.578 260.684 122 260.238C123.101 259.055 123.728 258.463 123.881 258.463C124.185 258.463 124.338 258.99 124.338 260.045ZM135.508 241.359L136.229 241.535C136.334 241.535 136.428 241.588 136.51 241.693C136.592 241.799 136.633 241.898 136.633 241.992C136.633 242.086 136.51 242.338 136.264 242.748C136.018 243.158 135.725 243.627 135.385 244.154C135.057 244.67 134.881 244.951 134.858 244.998C135.772 244.928 136.416 244.893 136.791 244.893C137.178 244.893 137.442 244.922 137.582 244.98C137.723 245.027 137.881 245.174 138.057 245.42C138.245 245.654 138.415 245.836 138.567 245.965C138.719 246.082 138.795 246.264 138.795 246.51C138.795 246.756 138.643 246.967 138.338 247.143C138.045 247.307 137.729 247.406 137.389 247.441C134.67 247.711 133.17 247.852 132.889 247.863C131.94 249.316 130.61 251.584 128.899 254.666C127.2 257.736 126.297 259.658 126.192 260.432C126.145 260.783 126.122 261.07 126.122 261.293C126.122 261.75 126.362 261.979 126.842 261.979C127.323 261.979 127.856 261.797 128.442 261.434C129.028 261.059 129.567 260.654 130.059 260.221C131.372 259.049 132.075 258.463 132.168 258.463C132.473 258.463 132.625 258.99 132.625 260.045C132.625 260.619 132.362 261.135 131.834 261.592C130.651 262.611 129.655 263.379 128.846 263.895C128.038 264.41 127.229 264.668 126.42 264.668C126.245 264.668 126.081 264.65 125.928 264.615C124.991 264.439 124.299 264.1 123.854 263.596C123.42 263.08 123.204 262.389 123.204 261.521C123.215 260.654 123.473 259.605 123.977 258.375C124.493 257.133 125.137 255.814 125.911 254.42C127.176 252.146 128.442 250.014 129.707 248.021L129.04 248.109C127.68 248.262 126.889 248.338 126.666 248.338H126.508C126.168 248.338 125.84 248.273 125.524 248.145C125.207 248.004 125.049 247.834 125.049 247.635C125.049 247.436 125.131 247.242 125.295 247.055C125.471 246.867 125.577 246.721 125.612 246.615C125.694 246.357 125.999 246.07 126.526 245.754C127.065 245.438 127.469 245.273 127.739 245.262C128.008 245.238 128.266 245.221 128.512 245.209C128.77 245.197 129.051 245.186 129.356 245.174C129.672 245.162 129.913 245.15 130.077 245.139L131.659 245.068C132.643 243.592 133.317 242.643 133.68 242.221C134.055 241.799 134.272 241.57 134.331 241.535C134.389 241.488 134.506 241.465 134.682 241.465L135.508 241.359ZM146.978 258.814C147.06 259.354 147.101 259.781 147.101 260.098C147.101 260.402 147.042 260.672 146.925 260.906C146.819 261.129 146.573 261.451 146.187 261.873C145.812 262.283 145.36 262.699 144.833 263.121C143.544 264.141 142.226 264.65 140.878 264.65C138.944 264.65 137.978 263.795 137.978 262.084C137.978 260.596 139.273 257.631 141.862 253.189C141.956 253.025 142.021 252.908 142.056 252.838C141.153 253.471 139.425 255.199 136.87 258.023C134.327 260.836 132.634 262.828 131.79 264C131.72 264.105 131.544 264.223 131.263 264.352C130.982 264.48 130.759 264.545 130.595 264.545C130.442 264.545 130.278 264.492 130.103 264.387C129.915 264.293 129.798 264.246 129.751 264.246C129.599 264.246 129.523 264.193 129.523 264.088C129.523 263.994 129.734 263.461 130.155 262.488C130.566 261.504 131.11 260.285 131.79 258.832C133.653 254.824 136.425 249.609 140.105 243.188C141.394 240.938 142.401 239.344 143.128 238.406C143.644 237.738 144.511 237.404 145.73 237.404C145.987 237.404 146.134 237.48 146.169 237.633C146.204 237.785 146.222 237.949 146.222 238.125C146.222 238.301 146.187 238.477 146.116 238.652L144.235 241.588C140.509 247.4 137.702 252.217 135.816 256.037C137.644 253.811 139.419 252.094 141.142 250.887C142.208 250.125 143.005 249.744 143.532 249.744C144.071 249.744 144.558 249.832 144.991 250.008C145.425 250.172 145.642 250.576 145.642 251.221C145.642 251.455 145.261 252.322 144.499 253.822C142.214 258.322 141.071 260.824 141.071 261.328C141.071 261.82 141.276 262.066 141.687 262.066C142.284 262.066 143.204 261.486 144.446 260.326C145.384 259.447 145.976 258.885 146.222 258.639C146.362 258.533 146.491 258.48 146.609 258.48C146.831 258.48 146.954 258.592 146.978 258.814ZM169.987 239.021L171.27 238.74C171.598 238.74 171.862 238.811 172.061 238.951C172.26 239.092 172.36 239.227 172.36 239.355C172.36 239.473 172.33 239.648 172.272 239.883C172.213 240.117 171.739 242.402 170.848 246.738C169.957 251.074 169.307 254.309 168.897 256.441C170.889 253.734 173.215 250.4 175.875 246.439C178.536 242.479 180.088 239.848 180.534 238.547C180.674 238.137 180.856 237.82 181.079 237.598C181.301 237.375 181.5 237.246 181.676 237.211C181.852 237.164 182.121 237.141 182.485 237.141C182.848 237.141 183.276 237.223 183.768 237.387C184.272 237.539 184.524 237.797 184.524 238.16C184.524 238.852 183.498 240.844 181.448 244.137C179.397 247.43 177.053 250.928 174.416 254.631C171.791 258.334 169.594 261.264 167.825 263.42C167.508 263.807 167.121 264 166.664 264C166.219 264 165.745 263.924 165.241 263.771C164.748 263.607 164.502 263.326 164.502 262.928C164.502 261.639 165.633 255.445 167.895 244.348C165.961 246.855 163.612 250.348 160.846 254.824C157.963 259.453 156.334 262.324 155.959 263.438C155.748 264.105 155.508 264.492 155.239 264.598C155.051 264.68 154.852 264.721 154.641 264.721L153.252 264.879C152.983 264.879 152.737 264.803 152.514 264.65C152.28 264.498 152.163 264.34 152.163 264.176C152.163 263.707 152.807 262.307 154.096 259.975C155.397 257.643 156.909 255.111 158.631 252.381C160.366 249.639 162.176 246.973 164.063 244.383C165.95 241.793 167.409 240.053 168.44 239.162C168.651 238.975 168.891 238.881 169.161 238.881L169.987 239.021ZM190.966 250.641C191.856 250.641 192.302 250.945 192.302 251.555C192.302 251.883 192.226 252.123 192.073 252.275C191.921 252.428 191.593 252.938 191.089 253.805C190.597 254.66 190.046 255.762 189.437 257.109C188.839 258.445 188.452 259.588 188.276 260.537C188.241 260.654 188.224 260.818 188.224 261.029C188.224 261.674 188.399 261.996 188.751 261.996C189.103 261.996 189.519 261.832 189.999 261.504C190.48 261.164 190.907 260.807 191.282 260.432C191.657 260.045 192.021 259.652 192.372 259.254C192.735 258.855 192.952 258.627 193.023 258.568C193.093 258.51 193.198 258.48 193.339 258.48C193.562 258.48 193.696 258.65 193.743 258.99C193.79 259.33 193.814 259.682 193.814 260.045C193.814 260.408 193.778 260.66 193.708 260.801C193.368 261.469 192.618 262.271 191.458 263.209C190.31 264.146 189.261 264.615 188.312 264.615C187.374 264.615 186.683 264.328 186.237 263.754C185.792 263.18 185.569 262.547 185.569 261.855C185.569 261.152 185.687 260.537 185.921 260.01C184.948 261.275 183.829 262.348 182.564 263.227C181.31 264.105 180.284 264.545 179.487 264.545C178.69 264.545 178.04 264.305 177.536 263.824C176.892 263.227 176.569 262.4 176.569 261.346C176.569 260.279 176.804 259.213 177.273 258.146C177.753 257.068 178.38 256.09 179.153 255.211C179.927 254.32 180.776 253.512 181.702 252.785C183.648 251.262 185.44 250.5 187.081 250.5C187.714 250.5 188.23 250.605 188.628 250.816C189.026 251.027 189.278 251.291 189.384 251.607C189.665 251.186 189.899 250.922 190.087 250.816C190.286 250.699 190.579 250.641 190.966 250.641ZM188.628 252.592C186.624 252.592 184.55 253.705 182.405 255.932C181.644 256.729 180.94 257.684 180.296 258.797C179.663 259.91 179.347 260.672 179.347 261.082C179.347 261.492 179.464 261.697 179.698 261.697C180.026 261.697 180.94 261.053 182.44 259.764C183.94 258.463 184.937 257.508 185.429 256.898C185.968 256.219 187.034 254.783 188.628 252.592ZM204.668 241.359L205.388 241.535C205.494 241.535 205.588 241.588 205.67 241.693C205.752 241.799 205.793 241.898 205.793 241.992C205.793 242.086 205.67 242.338 205.424 242.748C205.177 243.158 204.884 243.627 204.545 244.154C204.216 244.67 204.041 244.951 204.017 244.998C204.931 244.928 205.576 244.893 205.951 244.893C206.338 244.893 206.601 244.922 206.742 244.98C206.883 245.027 207.041 245.174 207.216 245.42C207.404 245.654 207.574 245.836 207.726 245.965C207.879 246.082 207.955 246.264 207.955 246.51C207.955 246.756 207.802 246.967 207.498 247.143C207.205 247.307 206.888 247.406 206.549 247.441C203.83 247.711 202.33 247.852 202.049 247.863C201.099 249.316 199.769 251.584 198.058 254.666C196.359 257.736 195.457 259.658 195.351 260.432C195.304 260.783 195.281 261.07 195.281 261.293C195.281 261.75 195.521 261.979 196.002 261.979C196.482 261.979 197.015 261.797 197.601 261.434C198.187 261.059 198.726 260.654 199.218 260.221C200.531 259.049 201.234 258.463 201.328 258.463C201.633 258.463 201.785 258.99 201.785 260.045C201.785 260.619 201.521 261.135 200.994 261.592C199.81 262.611 198.814 263.379 198.006 263.895C197.197 264.41 196.388 264.668 195.58 264.668C195.404 264.668 195.24 264.65 195.088 264.615C194.15 264.439 193.459 264.1 193.013 263.596C192.58 263.08 192.363 262.389 192.363 261.521C192.375 260.654 192.633 259.605 193.136 258.375C193.652 257.133 194.297 255.814 195.07 254.42C196.336 252.146 197.601 250.014 198.867 248.021L198.199 248.109C196.84 248.262 196.049 248.338 195.826 248.338H195.668C195.328 248.338 195 248.273 194.683 248.145C194.367 248.004 194.209 247.834 194.209 247.635C194.209 247.436 194.291 247.242 194.455 247.055C194.631 246.867 194.736 246.721 194.771 246.615C194.853 246.357 195.158 246.07 195.685 245.754C196.224 245.438 196.629 245.273 196.898 245.262C197.168 245.238 197.425 245.221 197.672 245.209C197.929 245.197 198.211 245.186 198.515 245.174C198.832 245.162 199.072 245.15 199.236 245.139L200.818 245.068C201.802 243.592 202.476 242.643 202.84 242.221C203.215 241.799 203.431 241.57 203.49 241.535C203.549 241.488 203.666 241.465 203.841 241.465L204.668 241.359ZM215.557 258.48C215.78 258.48 215.914 258.65 215.961 258.99C216.008 259.33 216.032 259.682 216.032 260.045C216.032 260.408 215.996 260.66 215.926 260.801C215.586 261.457 214.842 262.26 213.694 263.209C212.545 264.146 211.455 264.615 210.424 264.615C209.791 264.615 209.205 264.422 208.666 264.035C208.127 263.66 207.858 262.998 207.858 262.049C207.858 261.1 208.11 260.168 208.614 259.254C205.707 262.898 203.428 264.721 201.776 264.721C201.119 264.721 200.586 264.486 200.176 264.018C199.778 263.549 199.578 263.068 199.578 262.576C199.578 262.072 199.649 261.557 199.789 261.029C199.93 260.49 200.076 260.01 200.229 259.588C200.393 259.166 200.627 258.645 200.932 258.023C201.248 257.402 201.483 256.951 201.635 256.67C201.787 256.389 202.028 255.967 202.356 255.404C202.696 254.83 203.135 254.062 203.674 253.102C204.225 252.141 204.676 251.432 205.028 250.975C205.391 250.506 205.742 250.271 206.082 250.271C206.422 250.26 206.721 250.395 206.979 250.676C207.237 250.957 207.366 251.186 207.366 251.361C207.366 251.537 206.973 252.328 206.188 253.734C203.867 257.93 202.707 260.373 202.707 261.064C202.707 261.24 202.772 261.328 202.901 261.328C203.463 261.328 204.864 260.109 207.102 257.672C209.34 255.234 210.635 253.676 210.987 252.996C211.338 252.305 211.678 251.725 212.006 251.256C212.346 250.787 212.598 250.5 212.762 250.395C213.266 250.066 213.916 249.891 214.713 249.867C214.842 249.867 214.942 249.873 215.012 249.885C215.082 249.896 215.164 249.996 215.258 250.184C215.352 250.371 215.399 250.518 215.399 250.623C215.293 250.951 214.825 251.824 213.992 253.242C213.172 254.66 212.715 255.463 212.621 255.65C211.239 258.51 210.547 260.373 210.547 261.24C210.547 261.732 210.735 261.979 211.11 261.979C211.789 261.885 212.61 261.34 213.571 260.344C213.922 259.98 214.268 259.611 214.608 259.236C214.959 258.861 215.176 258.645 215.258 258.586C215.34 258.516 215.44 258.48 215.557 258.48ZM221.015 254.42C223.78 251.279 226.136 249.709 228.081 249.709C228.561 249.709 228.954 249.855 229.259 250.148C229.575 250.43 229.733 250.799 229.733 251.256C229.733 251.713 229.405 252.48 228.749 253.559C228.104 254.625 227.507 255.527 226.956 256.266C226.663 256.641 226.329 256.828 225.954 256.828C225.591 256.828 225.304 256.693 225.093 256.424C224.894 256.154 224.794 255.838 224.794 255.475C224.794 254.666 225.227 253.752 226.095 252.732L226.06 252.697C225.673 252.732 224.712 253.494 223.177 254.982C221.653 256.471 220.352 257.807 219.274 258.99C218.208 260.162 217.048 261.592 215.794 263.279C215.431 263.783 215.12 264.035 214.862 264.035C214.616 264.035 214.288 263.959 213.878 263.807C213.456 263.643 213.204 263.525 213.122 263.455C213.028 263.385 212.981 263.268 212.981 263.104C212.981 262.939 213.028 262.752 213.122 262.541C213.216 262.318 213.392 262.008 213.649 261.609C213.895 261.211 214.27 260.566 214.774 259.676C215.29 258.785 216.087 257.438 217.165 255.633C218.243 253.828 218.888 252.738 219.099 252.363C219.544 251.59 219.907 251.027 220.188 250.676C220.716 250.008 221.606 249.674 222.86 249.674C223.142 249.674 223.282 249.85 223.282 250.201C223.282 250.752 222.772 251.789 221.753 253.312L221.015 254.42ZM240.306 250.852C240.306 251.625 239.99 252.305 239.357 252.891C238.736 253.477 238.027 253.77 237.23 253.77C236.972 253.77 236.802 253.711 236.72 253.594C236.638 253.465 236.597 253.301 236.597 253.102C236.597 252.902 236.621 252.709 236.668 252.521C236.246 252.662 235.777 252.879 235.261 253.172C234.746 253.465 234.113 253.898 233.363 254.473C232.613 255.047 232.238 255.475 232.238 255.756C232.238 255.85 232.373 255.896 232.642 255.896C232.923 255.896 233.351 255.803 233.925 255.615C234.5 255.416 234.898 255.316 235.121 255.316C235.355 255.316 235.507 255.328 235.578 255.352C235.73 255.434 235.894 255.615 236.07 255.896C236.246 256.166 236.334 256.383 236.334 256.547C236.334 256.699 236.181 256.904 235.877 257.162C235.572 257.42 235.226 257.619 234.839 257.76C234.453 257.889 234.195 257.988 234.066 258.059C231.593 259.441 230.357 260.391 230.357 260.906C230.357 261.82 231.136 262.277 232.695 262.277C233.691 262.277 234.693 261.961 235.701 261.328C236.556 260.789 237.324 260.244 238.004 259.693C238.695 259.131 239.129 258.785 239.304 258.656C239.492 258.527 239.632 258.463 239.726 258.463C240.031 258.463 240.183 258.803 240.183 259.482C240.183 260.162 240.142 260.613 240.06 260.836C239.978 261.047 239.744 261.311 239.357 261.627C236.849 263.666 234.476 264.686 232.238 264.686C231.043 264.686 230.087 264.521 229.373 264.193C228.06 263.596 227.404 262.682 227.404 261.451C227.404 259.834 228.523 258.609 230.761 257.777C230.316 257.578 230.029 257.326 229.9 257.021C229.771 256.705 229.707 256.207 229.707 255.527C229.707 254.836 230.023 254.109 230.656 253.348C231.3 252.574 232.086 251.941 233.011 251.449C235.074 250.336 236.914 249.779 238.531 249.779C238.918 249.779 239.31 249.873 239.709 250.061C240.107 250.248 240.306 250.512 240.306 250.852Z" fill="#7EB693"/>
</svg>
